<svg xmlns="http://www.w3.org/2000/svg" viewBox="0 0 740 620" role="img" aria-labelledby="title desc">
  <title id="title">Premium responsive business website preview</title>
  <desc id="desc">Desktop and mobile website mockups with premium cards, charts, and calls to action.</desc>
  <defs>
    <linearGradient id="bg" x1="0" x2="1" y1="0" y2="1">
      <stop offset="0" stop-color="#2dd4bf"/>
      <stop offset=".52" stop-color="#172b46"/>
      <stop offset="1" stop-color="#f7b267"/>
    </linearGradient>
    <linearGradient id="panel" x1="0" x2="1" y1="0" y2="1">
      <stop offset="0" stop-color="#ffffff" stop-opacity=".22"/>
      <stop offset="1" stop-color="#ffffff" stop-opacity=".08"/>
    </linearGradient>
    <filter id="shadow" x="-20%" y="-20%" width="140%" height="140%">
      <feDropShadow dx="0" dy="28" stdDeviation="28" flood-color="#000" flood-opacity=".32"/>
    </filter>
  </defs>
  <rect width="740" height="620" rx="38" fill="url(#bg)"/>
  <circle cx="104" cy="100" r="68" fill="#fff" opacity=".12"/>
  <circle cx="640" cy="510" r="108" fill="#fff" opacity=".1"/>
  <g filter="url(#shadow)">
    <rect x="62" y="78" width="545" height="382" rx="20" fill="#07111f"/>
    <rect x="82" y="100" width="505" height="338" rx="14" fill="url(#panel)" stroke="#fff" stroke-opacity=".22"/>
    <rect x="105" y="124" width="110" height="12" rx="6" fill="#2dd4bf"/>
    <rect x="494" y="120" width="58" height="20" rx="10" fill="#f7b267"/>
    <rect x="105" y="170" width="214" height="25" rx="8" fill="#fff" opacity=".88"/>
    <rect x="105" y="209" width="286" height="12" rx="6" fill="#adc0d7" opacity=".72"/>
    <rect x="105" y="232" width="238" height="12" rx="6" fill="#adc0d7" opacity=".45"/>
    <rect x="105" y="274" width="112" height="38" rx="8" fill="#2dd4bf"/>
    <rect x="229" y="274" width="112" height="38" rx="8" fill="#fff" opacity=".12"/>
    <rect x="390" y="158" width="152" height="176" rx="14" fill="#0d1b2d" stroke="#fff" stroke-opacity=".16"/>
    <path d="M414 292c28-82 50-100 75-54 16 30 25 4 34-36" fill="none" stroke="#2dd4bf" stroke-width="10" stroke-linecap="round"/>
    <rect x="105" y="352" width="112" height="52" rx="10" fill="#fff" opacity=".1"/>
    <rect x="235" y="352" width="112" height="52" rx="10" fill="#fff" opacity=".1"/>
    <rect x="365" y="352" width="112" height="52" rx="10" fill="#fff" opacity=".1"/>
  </g>
  <g filter="url(#shadow)">
    <rect x="518" y="224" width="156" height="300" rx="28" fill="#07111f"/>
    <rect x="533" y="248" width="126" height="252" rx="18" fill="url(#panel)" stroke="#fff" stroke-opacity=".2"/>
    <rect x="552" y="272" width="66" height="9" rx="5" fill="#2dd4bf"/>
    <rect x="552" y="312" width="82" height="17" rx="7" fill="#fff" opacity=".9"/>
    <rect x="552" y="340" width="70" height="8" rx="4" fill="#adc0d7" opacity=".65"/>
    <rect x="552" y="356" width="86" height="8" rx="4" fill="#adc0d7" opacity=".4"/>
    <rect x="552" y="388" width="88" height="33" rx="8" fill="#f7b267"/>
    <rect x="552" y="444" width="88" height="36" rx="8" fill="#fff" opacity=".1"/>
  </g>
</svg>
